<svg id="folder" width="48" height="49" viewBox="0 0 48 49" fill="none" xmlns="http://www.w3.org/2000/svg">
<g clip-path="url(#clip0_454_105)">
<path d="M9.10974 16.8591C8.22799 15.9431 7.78711 14.7386 7.78711 13.2455C7.78711 11.7901 8.22799 10.5856 9.10974 9.63201C9.9915 8.67844 11.3509 8.20166 13.1756 8.20166C14.9146 8.20166 16.2495 8.67844 17.1803 9.64456C18.111 10.6107 18.5764 11.8026 18.5764 13.233C18.5764 14.7135 18.1232 15.918 17.2292 16.8465C16.3352 17.7624 14.9759 18.2267 13.1879 18.2267C11.3509 18.2392 9.9915 17.775 9.10974 16.8591Z" fill="#FF98E5"/>
<path d="M40.1427 25.7797V35.8047C40.1427 37.2853 39.6895 38.4898 38.7955 39.4183C37.9015 40.3342 36.5422 40.7984 34.7542 40.7984H13.1756C11.3509 40.7984 9.9915 40.3342 9.10974 39.4183C8.22799 38.5023 7.78711 37.2978 7.78711 35.8047V25.7797C7.78711 24.3243 8.22799 23.1198 9.10974 22.1662C9.9915 21.2126 11.3509 20.7358 13.1756 20.7358H34.7542C36.4932 20.7358 37.8281 21.2252 38.7588 22.1787C39.6773 23.1574 40.1427 24.3494 40.1427 25.7797Z" fill="#6C5DD3"/>
</g>
<defs>
<clipPath id="clip0_454_105">
<rect width="48" height="48" fill="white" transform="translate(0 0.5)"/>
</clipPath>
</defs>
</svg>
