<?xml version="1.0" encoding="utf-8"?>
<!-- Generator: Adobe Illustrator 26.1.0, SVG Export Plug-In . SVG Version: 6.00 Build 0)  -->
<svg version="1.1" id="Layer_1" xmlns="http://www.w3.org/2000/svg" xmlns:xlink="http://www.w3.org/1999/xlink" x="0px" y="0px"
	 viewBox="0 0 600 600" xml:space="preserve">
<path class="st0" d="M589.8,300.4c0,159.9-129.6,289.5-289.5,289.5c-159.9,0-289.5-129.6-289.5-289.5S140.4,10.9,300.3,10.9
	C460.2,10.9,589.8,140.5,589.8,300.4z"/>
<path fill="#5C50AF" d="M311.1,195.5c-20.1,0-35.1-4.9-44.9-14.8c-9.6-9.9-14.3-22.8-14.3-38.7c0-15.6,4.8-28.5,14.3-38.7
	C276,93,291,87.9,311.1,87.9c19.1,0,33.8,5.3,44,15.8c10.2,10.2,15.3,23,15.3,38.3c0,15.9-4.9,28.8-14.8,38.7
	C345.7,190.6,330.9,195.5,311.1,195.5z M255.6,484.8c2.2-51.3,3.3-93.7,3.3-127.2c0-39.8-1.3-84.5-3.8-133.9h114.8
	c-2.6,47.5-3.8,92.1-3.8,133.9c0,35.1,1.1,77.5,3.3,127.2H255.6z"/>
</svg>
