<svg id="realization" width="367" height="326" viewBox="0 0 367 326" fill="none" xmlns="http://www.w3.org/2000/svg">
<path d="M29.0544 79.822V84.0031C29.0544 90.6858 25.0694 96.7247 18.9252 99.3529C12.7809 101.981 8.7959 108.02 8.7959 114.703V122.87C8.7959 138.926 21.8118 151.942 37.8678 151.942H323.037C338.756 151.942 351.498 139.2 351.498 123.481C351.498 107.763 338.756 95.0201 323.037 95.0201L138.39 95.0201C127.833 95.0201 119.275 86.4622 119.275 75.9056C119.275 65.3489 110.717 56.791 100.161 56.791L52.0855 56.791C39.3658 56.791 29.0544 67.1024 29.0544 79.822Z" fill="#5C50AF"/>
<path d="M0 288.583L0 154.855C0 134.982 16.1104 118.872 35.9835 118.872L331.017 118.872C350.89 118.872 367 134.982 367 154.855V288.583C367 308.456 350.89 324.566 331.017 324.566H35.9835C16.1104 324.566 0 308.456 0 288.583Z" fill="#6C5DD3"/>
<rect x="54.3125" y="52.5505" width="199.351" height="282.107" rx="10.1521" transform="rotate(-15 54.3125 52.5505)" fill="white"/>
<rect x="134.516" y="71.5298" width="8.41509" height="33.8985" transform="rotate(-15 134.516 71.5298)" fill="#4A46FF"/>
<rect x="150.771" y="67.1737" width="8.41509" height="8.47463" transform="rotate(-15 150.771 67.1737)" fill="#4A46FF"/>
<rect x="161.094" y="73.1816" width="8.41509" height="8.47463" transform="rotate(-15 161.094 73.1816)" fill="#4A46FF"/>
<rect x="167.029" y="62.8177" width="25.2453" height="8.47463" transform="rotate(-15 167.029 62.8177)" fill="#4A46FF"/>
<rect x="147.031" y="85.7234" width="8.41509" height="8.47463" transform="rotate(-15 147.031 85.7234)" fill="#4A46FF"/>
<rect x="165.48" y="89.5535" width="8.41509" height="8.47463" transform="rotate(-15 165.48 89.5535)" fill="#4A46FF"/>
<rect x="179.543" y="77.0116" width="8.41509" height="8.47463" transform="rotate(-15 179.543 77.0116)" fill="#4A46FF"/>
<rect x="185.479" y="66.6477" width="8.41509" height="8.47463" transform="rotate(-15 185.479 66.6477)" fill="#4A46FF"/>
<rect x="189.865" y="83.0195" width="8.41509" height="8.47463" transform="rotate(-15 189.865 83.0195)" fill="#4A46FF"/>
<rect x="142.643" y="69.3517" width="8.41509" height="8.47463" transform="rotate(-15 142.643 69.3517)" fill="#4A46FF"/>
<path d="M0 288.583L0 154.856C0 134.983 16.1104 118.872 35.9835 118.872L331.017 118.872C350.89 118.872 367 134.983 367 154.856V288.583C367 308.457 350.89 324.567 331.017 324.567H35.9835C16.1104 324.567 0 308.456 0 288.583Z" fill="#6C5DD3"/>
<path d="M65.2378 217.985H44.1838V222.049C45.4996 222.074 47.4735 222.087 50.1052 222.087C54.6463 222.087 59.2647 222.01 63.9606 221.855V229.441C59.2647 229.26 54.3108 229.17 49.0989 229.17C46.9316 229.17 45.2932 229.183 44.1838 229.209V238.845H35.05C35.2565 233.84 35.3597 229.157 35.3597 224.797C35.3597 220.436 35.2565 215.753 35.05 210.748H65.2378V217.985ZM73.5337 215.431C71.9082 215.431 70.6955 215.031 69.8956 214.231C69.1216 213.431 68.7346 212.386 68.7346 211.096C68.7346 209.832 69.1216 208.787 69.8956 207.961C70.6955 207.135 71.9082 206.723 73.5337 206.723C75.0817 206.723 76.2686 207.148 77.0943 208C77.9199 208.825 78.3327 209.857 78.3327 211.096C78.3327 212.386 77.9328 213.431 77.133 214.231C76.3331 215.031 75.1333 215.431 73.5337 215.431ZM69.0442 238.845C69.2248 234.691 69.3151 231.26 69.3151 228.551C69.3151 225.325 69.2119 221.713 69.0055 217.714H78.294C78.0876 221.558 77.9844 225.171 77.9844 228.551C77.9844 231.389 78.0747 234.82 78.2553 238.845H69.0442ZM99.3347 224.642C96.961 224.487 94.7937 224.371 92.8328 224.293L92.7941 228.396C92.7941 229.789 93.0908 230.886 93.6842 231.686C94.3034 232.46 95.3871 232.847 96.9352 232.847C97.5286 232.847 98.0963 232.795 98.6381 232.692C98.5349 233.646 98.4833 234.614 98.4833 235.594C98.4833 236.059 98.5091 237.117 98.5607 238.768C97.4254 238.974 96.4708 239.103 95.6967 239.155C94.9227 239.207 93.9164 239.232 92.6779 239.232C89.6592 239.232 87.5176 238.51 86.2534 237.065C85.0149 235.594 84.3957 233.556 84.3957 230.95L84.4344 224.41C83.2217 224.461 81.9574 224.539 80.6416 224.642V217.791C81.9832 217.791 83.1185 217.366 84.0473 216.514C84.9762 215.663 85.5309 214.644 85.7115 213.457H96.2385C94.9227 215.263 93.4649 216.708 91.8652 217.791H99.3347V224.642ZM132.723 220.114C132.723 222.358 132.168 224.255 131.059 225.803C129.975 227.351 128.104 228.473 125.447 229.17C125.757 229.583 125.976 229.905 126.105 230.137L132.375 238.845H121.848C120.712 236.73 118.919 233.737 116.468 229.867H110.779V238.845H101.645C101.851 233.84 101.955 229.157 101.955 224.797C101.955 220.436 101.851 215.753 101.645 210.748H110.779V210.786H118.713C123.925 210.786 127.563 211.625 129.627 213.302C131.691 214.979 132.723 217.25 132.723 220.114ZM110.779 218.217V222.629H116.004C118.197 222.629 119.848 222.565 120.957 222.436C122.093 222.281 122.88 222.049 123.318 221.739C123.757 221.429 123.976 220.978 123.976 220.385C123.976 219.817 123.77 219.378 123.357 219.069C122.944 218.759 122.17 218.54 121.035 218.411C119.9 218.282 118.223 218.217 116.004 218.217H110.779ZM154.358 229.17H141.741C141.947 230.305 142.45 231.234 143.25 231.956C144.076 232.653 145.237 233.001 146.733 233.001C147.817 233.001 148.836 232.795 149.791 232.382C150.746 231.944 151.507 231.337 152.074 230.563C153.803 231.415 156.099 232.331 158.963 233.311C158.164 235.117 156.706 236.562 154.59 237.646C152.5 238.704 149.765 239.232 146.385 239.232C141.999 239.232 138.748 238.226 136.632 236.214C134.542 234.175 133.497 231.505 133.497 228.202C133.497 224.977 134.542 222.358 136.632 220.346C138.722 218.333 141.973 217.327 146.385 217.327C149.017 217.327 151.3 217.766 153.235 218.643C155.171 219.52 156.654 220.746 157.686 222.32C158.718 223.868 159.234 225.648 159.234 227.661C159.234 228.331 159.208 228.834 159.157 229.17H154.358ZM146.927 223.171C145.637 223.171 144.579 223.416 143.753 223.906C142.928 224.397 142.347 225.067 142.012 225.919H151.146C150.836 225.093 150.333 224.435 149.636 223.945C148.939 223.429 148.036 223.171 146.927 223.171ZM178.841 217.327C180.518 217.327 182.028 217.804 183.369 218.759C184.711 219.714 185.756 221.017 186.504 222.668C187.252 224.293 187.627 226.087 187.627 228.048C187.627 229.983 187.252 231.815 186.504 233.543C185.756 235.246 184.698 236.627 183.331 237.684C181.989 238.716 180.454 239.232 178.725 239.232C176.713 239.232 174.984 238.82 173.539 237.994C172.12 237.143 171.062 235.84 170.365 234.085C170.365 235.556 170.417 237.917 170.52 241.168C170.623 244.315 170.675 246.534 170.675 247.824H161.928C162.083 243.025 162.161 238.007 162.161 232.769C162.161 227.532 162.083 222.513 161.928 217.714H169.359L170.481 222.552C171.204 220.746 172.288 219.43 173.732 218.604C175.177 217.753 176.88 217.327 178.841 217.327ZM174.7 232.266C175.861 232.266 176.829 231.905 177.603 231.182C178.403 230.434 178.802 229.467 178.802 228.28C178.802 226.964 178.441 225.893 177.719 225.067C176.996 224.242 176.016 223.829 174.777 223.829C173.358 223.829 172.288 224.177 171.565 224.874C170.843 225.545 170.481 226.68 170.481 228.28C170.481 229.183 170.714 229.944 171.178 230.563C171.643 231.157 172.197 231.595 172.842 231.879C173.487 232.137 174.107 232.266 174.7 232.266ZM210.824 229.17H198.207C198.413 230.305 198.916 231.234 199.716 231.956C200.542 232.653 201.703 233.001 203.199 233.001C204.283 233.001 205.302 232.795 206.257 232.382C207.212 231.944 207.973 231.337 208.54 230.563C210.269 231.415 212.565 232.331 215.429 233.311C214.629 235.117 213.172 236.562 211.056 237.646C208.966 238.704 206.231 239.232 202.851 239.232C198.465 239.232 195.214 238.226 193.098 236.214C191.008 234.175 189.963 231.505 189.963 228.202C189.963 224.977 191.008 222.358 193.098 220.346C195.188 218.333 198.439 217.327 202.851 217.327C205.483 217.327 207.766 217.766 209.701 218.643C211.636 219.52 213.12 220.746 214.152 222.32C215.184 223.868 215.7 225.648 215.7 227.661C215.7 228.331 215.674 228.834 215.623 229.17H210.824ZM203.393 223.171C202.103 223.171 201.045 223.416 200.219 223.906C199.394 224.397 198.813 225.067 198.478 225.919H207.611C207.302 225.093 206.799 224.435 206.102 223.945C205.405 223.429 204.502 223.171 203.393 223.171ZM227.373 223.442C228.457 219.546 231.153 217.598 235.462 217.598C236.21 217.598 236.933 217.65 237.629 217.753L236.391 226.422C234.533 225.725 233.011 225.377 231.824 225.377C230.353 225.377 229.27 225.816 228.573 226.693C227.876 227.57 227.528 228.744 227.528 230.215V230.176L227.489 232.731C227.489 234.562 227.541 236.601 227.644 238.845H218.394C218.601 235.13 218.704 231.621 218.704 228.318C218.704 225.016 218.601 221.481 218.394 217.714C220.097 217.791 221.4 217.83 222.303 217.83C223.258 217.83 224.561 217.791 226.212 217.714L227.373 223.442ZM258.263 224.642C255.89 224.487 253.722 224.371 251.761 224.293L251.723 228.396C251.723 229.789 252.019 230.886 252.613 231.686C253.232 232.46 254.316 232.847 255.864 232.847C256.457 232.847 257.025 232.795 257.567 232.692C257.463 233.646 257.412 234.614 257.412 235.594C257.412 236.059 257.438 237.117 257.489 238.768C256.354 238.974 255.399 239.103 254.625 239.155C253.851 239.207 252.845 239.232 251.606 239.232C248.588 239.232 246.446 238.51 245.182 237.065C243.943 235.594 243.324 233.556 243.324 230.95L243.363 224.41C242.15 224.461 240.886 224.539 239.57 224.642V217.791C240.912 217.791 242.047 217.366 242.976 216.514C243.905 215.663 244.459 214.644 244.64 213.457H255.167C253.851 215.263 252.393 216.708 250.794 217.791H258.263V224.642ZM273.036 239.232C268.624 239.232 265.373 238.226 263.283 236.214C261.219 234.175 260.187 231.505 260.187 228.202C260.187 224.977 261.219 222.358 263.283 220.346C265.373 218.333 268.624 217.327 273.036 217.327C276.003 217.327 278.48 217.817 280.467 218.798C282.479 219.752 283.963 221.055 284.917 222.707C285.872 224.332 286.349 226.164 286.349 228.202C286.349 231.531 285.24 234.201 283.021 236.214C280.828 238.226 277.499 239.232 273.036 239.232ZM273.191 232.653C274.868 232.653 276.119 232.253 276.945 231.453C277.77 230.653 278.183 229.583 278.183 228.241C278.183 226.977 277.77 225.945 276.945 225.145C276.119 224.319 274.868 223.906 273.191 223.906C271.513 223.906 270.288 224.306 269.514 225.106C268.74 225.906 268.353 226.951 268.353 228.241C268.353 229.583 268.74 230.653 269.514 231.453C270.288 232.253 271.513 232.653 273.191 232.653ZM298.05 223.442C299.134 219.546 301.83 217.598 306.139 217.598C306.887 217.598 307.609 217.65 308.306 217.753L307.068 226.422C305.21 225.725 303.688 225.377 302.501 225.377C301.03 225.377 299.946 225.816 299.25 226.693C298.553 227.57 298.205 228.744 298.205 230.215V230.176L298.166 232.731C298.166 234.562 298.218 236.601 298.321 238.845H289.071C289.278 235.13 289.381 231.621 289.381 228.318C289.381 225.016 289.278 221.481 289.071 217.714C290.774 217.791 292.077 217.83 292.98 217.83C293.935 217.83 295.238 217.791 296.889 217.714L298.05 223.442ZM333.699 217.714L332.809 219.959C330.358 226.487 327.791 232.782 325.107 238.845C323.714 241.942 321.702 244.419 319.07 246.276C316.438 248.16 313.136 249.063 309.162 248.985C308.672 246.844 308.259 245.167 307.924 243.954C307.614 242.767 307.201 241.568 306.685 240.355C308.104 240.69 309.433 240.858 310.672 240.858C312.684 240.858 314.284 240.432 315.471 239.581C314.542 236.82 313.445 233.853 312.181 230.679C310.917 227.506 309.085 223.184 306.685 217.714H315.858C316.167 219.004 316.593 220.501 317.135 222.204C317.677 223.906 318.218 225.545 318.76 227.119C318.915 227.609 319.16 228.357 319.496 229.363C319.857 230.344 320.141 231.17 320.347 231.84L321.353 228.783C323.288 223.184 324.437 219.494 324.798 217.714H333.699Z" fill="#322970"/>
</svg>
