<svg width="63" height="63" viewBox="0 0 63 63" fill="none" xmlns="http://www.w3.org/2000/svg">
<g clip-path="url(#clip0_833_333)">
<path d="M29.1755 8.36327C29.7915 6.09488 33.0093 6.09487 33.6253 8.36326L37.7242 23.4564C37.9386 24.2459 38.5553 24.8627 39.3449 25.0771L54.438 29.1759C56.7064 29.7919 56.7064 33.0098 54.438 33.6258L39.3449 37.7246C38.5553 37.939 37.9386 38.5558 37.7242 39.3453L33.6253 54.4384C33.0093 56.7068 29.7915 56.7068 29.1755 54.4384L25.0766 39.3453C24.8622 38.5558 24.2454 37.939 23.4559 37.7246L8.36281 33.6258C6.09442 33.0098 6.09441 29.7919 8.3628 29.1759L23.4559 25.0771C24.2454 24.8627 24.8622 24.2459 25.0766 23.4564L29.1755 8.36327Z" fill="#FF98E5"/>
</g>
<defs>
<clipPath id="clip0_833_333">
<rect width="62.4609" height="62.4609" fill="white" transform="translate(0.169922 0.17041)"/>
</clipPath>
</defs>
</svg>
