<svg id="tg" width="180" height="180" viewBox="0 0 180 180" fill="none" xmlns="http://www.w3.org/2000/svg">
<rect width="180" height="180" rx="50" fill="#1F2128"/>
<path fill-rule="evenodd" clip-rule="evenodd" d="M125 90C125 109.33 109.33 125 90 125C70.67 125 55 109.33 55 90C55 70.67 70.67 55 90 55C109.33 55 125 70.67 125 90ZM91.2556 80.8384C87.8513 82.2544 81.0475 85.185 70.8443 89.6304C69.1875 90.2893 68.3196 90.9339 68.2405 91.5641C68.107 92.6293 69.4409 93.0487 71.2573 93.6199C71.5044 93.6975 71.7603 93.778 72.0228 93.8633C73.8098 94.4442 76.2137 95.1238 77.4634 95.1508C78.597 95.1753 79.8622 94.708 81.259 93.7488C90.7922 87.3136 95.7133 84.061 96.0222 83.9909C96.2402 83.9414 96.5422 83.8792 96.7469 84.0611C96.9515 84.243 96.9314 84.5875 96.9097 84.6799C96.7776 85.2432 91.5417 90.111 88.8321 92.6301C87.9874 93.4154 87.3882 93.9725 87.2657 94.0997C86.9913 94.3847 86.7117 94.6542 86.4429 94.9133C84.7827 96.5138 83.5377 97.714 86.5119 99.6739C87.9411 100.616 89.0848 101.395 90.2258 102.172C91.4718 103.02 92.7147 103.867 94.3227 104.921C94.7324 105.189 95.1236 105.468 95.5047 105.74C96.9549 106.774 98.2577 107.702 99.8672 107.554C100.802 107.468 101.768 106.589 102.259 103.966C103.419 97.7674 105.698 84.3371 106.224 78.8027C106.271 78.3178 106.213 77.6973 106.166 77.4249C106.119 77.1525 106.022 76.7644 105.668 76.477C105.248 76.1368 104.601 76.065 104.312 76.0701C102.995 76.0933 100.975 76.7956 91.2556 80.8384Z" fill="white"/>
</svg>
