<svg id="vk" width="180" height="180" viewBox="0 0 180 180" fill="none" xmlns="http://www.w3.org/2000/svg">
<rect width="180" height="180" rx="50" fill="#1F2128"/>
<g clip-path="url(#clip0_807_671)">
<path fill-rule="evenodd" clip-rule="evenodd" d="M59.9121 59.9121C55 64.8241 55 72.73 55 88.5417V91.4583C55 107.27 55 115.176 59.9121 120.088C64.8241 125 72.73 125 88.5417 125H91.4583C107.27 125 115.176 125 120.088 120.088C125 115.176 125 107.27 125 91.4583V88.5417C125 72.73 125 64.8241 120.088 59.9121C115.176 55 107.27 55 91.4583 55H88.5417C72.73 55 64.8241 55 59.9121 59.9121V59.9121ZM68.8543 76.875H73.9596C75.2644 76.875 75.7553 77.4459 76.2446 78.8594C78.7415 86.1312 82.9516 92.4863 84.6823 92.4863C85.3313 92.4863 85.6291 92.1875 85.6291 90.5396V83.023C85.5118 80.8835 84.7643 79.9582 84.2106 79.2729C83.8686 78.8496 83.6005 78.518 83.6005 78.0482C83.6005 77.4773 84.0885 76.875 84.8996 76.875H92.9224C94.0043 76.875 94.381 77.4534 94.381 78.7513V88.8632C94.381 89.9446 94.8507 90.3232 95.1752 90.3232C95.8243 90.3232 96.3652 89.9446 97.5552 88.755C101.233 84.6453 103.829 78.3185 103.829 78.3185C104.154 77.5616 104.752 76.875 106.05 76.875H111.156C112.7 76.875 113.024 77.6696 112.7 78.7513C112.051 81.7253 105.831 90.4855 105.831 90.4855C105.29 91.3506 105.073 91.7833 105.831 92.7565C106.097 93.1299 106.666 93.6871 107.317 94.3247C107.987 94.9802 108.743 95.7209 109.346 96.4337C111.539 98.9002 113.192 100.981 113.652 102.415C114.073 103.854 113.344 104.583 111.885 104.583H106.78C105.412 104.583 104.724 103.818 103.236 102.163C102.605 101.461 101.831 100.6 100.8 99.57C97.7715 96.65 96.4734 96.2714 95.7161 96.2714C94.6885 96.2714 94.3811 96.5625 94.3811 98.0208V102.598C94.3811 103.854 93.9796 104.583 90.7344 104.583C85.3256 104.583 79.3817 101.3 75.1629 95.244C68.8347 86.3758 67.1039 79.6705 67.1039 78.3185C67.1039 77.5616 67.3956 76.875 68.8543 76.875V76.875Z" fill="white"/>
</g>
<defs>
<clipPath id="clip0_807_671">
<rect width="70" height="70" fill="white" transform="translate(55 55)"/>
</clipPath>
</defs>
</svg>
