<?xml version="1.0" encoding="utf-8"?>
<!-- Generator: Adobe Illustrator 26.1.0, SVG Export Plug-In . SVG Version: 6.00 Build 0)  -->
<svg version="1.1" id="Layer_1" xmlns="http://www.w3.org/2000/svg" xmlns:xlink="http://www.w3.org/1999/xlink" x="0px" y="0px"
	 viewBox="0 0 775 788" style="enable-background:new 0 0 775 788;" xml:space="preserve">
<style type="text/css">
	.st0{fill:#5C50AF;}
	.st1{clip-path:url(#SVGID_00000067948479027908422470000004934811303853236655_);}
	.st2{fill:#FFFFFF;}
	.st3{fill:#6C5DD3;}
	.st4{fill:none;stroke:#6C5DD3;stroke-width:0.9876;}
	.st5{fill:none;stroke:#FFFFFF;stroke-width:2;}
	.st6{fill-rule:evenodd;clip-rule:evenodd;fill:#FFFFFF;}
	.st7{clip-path:url(#SVGID_00000139267497977024278700000002289058381234071227_);}
	.st8{fill:#FF98E5;}
	.st9{clip-path:url(#SVGID_00000069366901178375395990000007099579237977914804_);}
	.st10{clip-path:url(#SVGID_00000086649460600385787010000009228468537732828596_);}
	.st11{clip-path:url(#SVGID_00000088850865692988406330000002638730522603870641_);}
	.st12{fill:none;stroke:#FF98E5;stroke-width:0.9876;}
</style>
<path class="st0" d="M583.8,276.3l0.8,2.6c0.9,2.7,0,5.6-2.1,7.5s-3,4.8-2.1,7.5l2.1,6.6c1.5,4.6,6.4,7.2,11,5.7L715,267.6
	c4.6-1.5,7.2-6.4,5.7-11l-2-6.2c-1.5-4.6-6.4-7.2-11-5.7l-77.6,24.7c-4.3,1.4-8.8-1-10.2-5.3c-1.4-4.3-5.9-6.6-10.2-5.3l-20.3,6.5
	C584.9,266.7,582.3,271.7,583.8,276.3z"/>
<g>
	<defs>
		<path id="SVGID_1_" d="M708.4,311.7l-49.7-4.2c-1-0.1-1.7-1-1.6-1.9l6.1-71.8c0.1-1,1-1.7,1.9-1.6l49.7,4.2c1,0.1,1.7,1,1.6,1.9
			l-6.1,71.8C710.3,311,709.4,311.8,708.4,311.7z"/>
	</defs>
	<clipPath id="SVGID_00000174592397053961969370000005111827929560146061_">
		<use xlink:href="#SVGID_1_"  style="overflow:visible;"/>
	</clipPath>
	<g style="clip-path:url(#SVGID_00000174592397053961969370000005111827929560146061_);">
		<path class="st2" d="M708.4,311.7l-49.7-4.2c-1-0.1-1.7-1-1.6-1.9l6.1-71.8c0.1-1,1-1.7,1.9-1.6l49.7,4.2c1,0.1,1.7,1,1.6,1.9
			l-6.1,71.8C710.3,311,709.4,311.8,708.4,311.7z"/>
		<path class="st3" d="M706,308.8l-23.3-2c-1-0.1-1.7-1-1.6-1.9l0.6-7.1c0.1-1,1-1.7,1.9-1.6l23.3,2c1,0.1,1.7,1,1.6,1.9l-0.6,7.1
			C707.8,308.1,706.9,308.8,706,308.8z"/>
		<path class="st3" d="M676.4,306.3l-14.8-1.2c-1-0.1-1.7-1-1.6-1.9l0.6-7.1c0.1-1,1-1.7,1.9-1.6l14.8,1.2c1,0.1,1.7,1,1.6,1.9
			l-0.6,7.1C678.3,305.6,677.4,306.4,676.4,306.3z"/>
		<path class="st3" d="M707,296.3l-44.3-3.7c-1-0.1-1.7-1-1.6-1.9l0.6-7.1c0.1-1,1-1.7,1.9-1.6l44.3,3.7c1,0.1,1.7,1,1.6,1.9
			l-0.6,7.1C708.9,295.7,708,296.4,707,296.3z"/>
		<path class="st3" d="M692.9,273c-0.1,1.5,0.1,3.1,0.8,4.4c0.7,1.4,1.7,2.6,2.9,3.4c1.3,0.9,2.7,1.4,4.3,1.5
			c1.5,0.1,3.1-0.2,4.4-0.8c1.4-0.7,2.6-1.7,3.4-3c0.9-1.3,1.4-2.7,1.5-4.3c0.1-1.5-0.2-3.1-0.9-4.4c-0.7-1.4-1.7-2.5-3-3.4
			l-4.8,7.2L692.9,273z"/>
		<path class="st4" d="M687.6,272.6l-0.3,0.8l-0.3,0.8l-0.3,0.7l-0.3,0.7l-0.3,0.6l-0.3,0.6l-0.3,0.5l-0.3,0.4l-0.3,0.4l-0.3,0.3
			l-0.3,0.2l-0.3,0.1l-0.2,0l-0.2-0.1l-0.2-0.2l-0.2-0.3l-0.2-0.4l-0.2-0.5l-0.2-0.6l-0.2-0.6l-0.2-0.7l-0.2-0.7l-0.2-0.8l-0.2-0.8
			l-0.2-0.8l-0.2-0.8l-0.2-0.8l-0.2-0.8l-0.2-0.7l-0.2-0.7l-0.2-0.6l-0.2-0.6l-0.2-0.5l-0.2-0.4l-0.2-0.3l-0.2-0.2l-0.2-0.1l-0.2,0
			l-0.3,0.1l-0.3,0.2L678,266l-0.3,0.4l-0.3,0.4l-0.3,0.5l-0.3,0.6l-0.3,0.6l-0.3,0.7l-0.3,0.7l-0.3,0.8l-0.3,0.8l-0.3,0.8l-0.3,0.8
			l-0.3,0.7l-0.3,0.7l-0.3,0.6l-0.3,0.6l-0.3,0.5l-0.3,0.4l-0.3,0.4l-0.3,0.3l-0.3,0.2l-0.3,0.1l-0.2,0l-0.2-0.1l-0.2-0.2l-0.2-0.3
			l-0.2-0.4l-0.2-0.5l-0.2-0.6l-0.2-0.6l-0.2-0.7l-0.2-0.7l-0.2-0.8l-0.2-0.8l-0.2-0.8l-0.2-0.8l-0.2-0.8l-0.2-0.8l-0.2-0.7
			l-0.2-0.7l-0.2-0.6l-0.2-0.6l-0.2-0.5l-0.2-0.4l-0.2-0.3l-0.2-0.2l-0.2-0.1l-0.2,0l-0.3,0.1l-0.3,0.2l-0.3,0.3l-0.3,0.4l-0.3,0.4
			l-0.3,0.5l-0.3,0.6l-0.3,0.6l-0.3,0.7l-0.3,0.7l-0.3,0.8l-0.3,0.8"/>
		<circle class="st3" cx="688.6" cy="250.3" r="8"/>
	</g>
</g>
<path class="st3" d="M600.3,373.3l-35.7-65c-2.7-4.8-0.2-10.9,5-12.6l167-53.1c5.5-1.8,11.2,2.2,11.4,8l3.4,75.3
	c0.2,4-2.3,7.6-6.1,8.8l-134.7,42.8C606.7,378.7,602.3,377,600.3,373.3z"/>
<path class="st5" d="M566.8,523.9c-57.2,67.6-127.3,113.2-194.5,132.3c-67.2,19.1-131.3,11.7-176.6-26.6
	C150.4,591.4,132.4,529.4,140,460c7.6-69.4,40.9-146.2,98-213.9s127.3-113.3,194.5-132.3c67.2-19.1,131.3-11.7,176.6,26.6
	c45.3,38.3,63.3,100.2,55.7,169.7C657.2,379.5,624,456.3,566.8,523.9z"/>
<path class="st0" d="M107.1,427.1l-0.8,1.6c-1.3,2.6-3.9,4.1-6.8,4c-2.9-0.2-5.5,1.4-6.8,4l-1.5,3.1c-3,6.1-0.5,13.6,5.6,16.6
	L206,510.3c6,3,13.3,0.5,16.3-5.5c3-6,0.5-13.3-5.5-16.3l-70.7-34.9c-4-2-5.7-6.9-3.7-10.9c2-4,0.3-8.9-3.7-10.9l-18.4-9.1
	C115.4,420.2,109.5,422.2,107.1,427.1z"/>
<path class="st3" d="M56.5,501.6l25.3-51.2c3.8-7.6,13-10.7,20.6-7l113,55.8c7.6,3.8,10.7,13,7,20.6L197,570.9
	c-3.8,7.6-13,10.7-20.6,7l-113-55.8C55.8,518.4,52.7,509.2,56.5,501.6z"/>
<path class="st6" d="M153.4,527.8c-34.9,9.8-67.5,15.2-91.8,16.1c-12.2,0.4-22.2-0.3-29.4-2.1c-7.4-1.9-11-4.7-11.9-7.9
	c-0.9-3.2,0.8-7.5,6.1-12.9c5.2-5.3,13.4-11.2,24-17.2c2.2-1.2,4.4-2.5,6.8-3.7l1.5-3c-27.1,13.8-43,27.6-40.3,37.3
	c4.8,17.1,65.5,15,135.6-4.7c70.1-19.7,123-49.6,118.1-66.7c-4.2-15-51.5-15.3-110.4-1.8l2.8,1.4c24.3-5.4,46.5-8.5,64.3-9.1
	c12.2-0.4,22.2,0.3,29.4,2.1c7.4,1.9,11,4.7,11.9,7.9c0.9,3.2-0.8,7.5-6.1,12.9c-5.2,5.3-13.4,11.2-24,17.2
	C218.9,505.7,188.4,518,153.4,527.8z"/>
<g>
	<defs>
		<rect id="SVGID_00000009564002450391993350000000589341032194341544_" x="317.5" y="287.6" width="169.9" height="169.9"/>
	</defs>
	<clipPath id="SVGID_00000010991296954139936600000017123888125234321038_">
		<use xlink:href="#SVGID_00000009564002450391993350000000589341032194341544_"  style="overflow:visible;"/>
	</clipPath>
	<g style="clip-path:url(#SVGID_00000010991296954139936600000017123888125234321038_);">
		<path class="st8" d="M396.4,309.9c1.7-6.2,10.4-6.2,12.1,0l11.1,41.1c0.6,2.1,2.3,3.8,4.4,4.4l41.1,11.1c6.2,1.7,6.2,10.4,0,12.1
			L424,389.8c-2.1,0.6-3.8,2.3-4.4,4.4l-11.1,41.1c-1.7,6.2-10.4,6.2-12.1,0l-11.1-41.1c-0.6-2.1-2.3-3.8-4.4-4.4l-41.1-11.2
			c-6.2-1.7-6.2-10.4,0-12.1l41.1-11.1c2.1-0.6,3.8-2.3,4.4-4.4L396.4,309.9z"/>
	</g>
</g>
<g>
	<defs>
		
			<rect id="SVGID_00000127731032459022413490000006279467059993515419_" x="520.1" y="553.1" transform="matrix(0.9642 -0.2651 0.2651 0.9642 -152.1107 189.2846)" width="210" height="210"/>
	</defs>
	<clipPath id="SVGID_00000081610729370108089250000000576246786566576063_">
		<use xlink:href="#SVGID_00000127731032459022413490000006279467059993515419_"  style="overflow:visible;"/>
	</clipPath>
	<g style="clip-path:url(#SVGID_00000081610729370108089250000000576246786566576063_);">
		<path class="st8" d="M597.3,585.4c0-7.9,10.4-10.8,14.4-4l26.7,45.3c1.4,2.4,3.9,3.8,6.7,3.8l52.6-0.2c7.9,0,10.8,10.4,4,14.4
			l-45.3,26.7c-2.4,1.4-3.8,3.9-3.8,6.7l0.2,52.6c0,7.9-10.4,10.8-14.4,4l-26.7-45.3c-1.4-2.4-3.9-3.8-6.7-3.8l-52.6,0.2
			c-7.9,0-10.8-10.4-4-14.4l45.3-26.7c2.4-1.4,3.8-3.9,3.8-6.7L597.3,585.4z"/>
	</g>
</g>
<path class="st8" d="M663.3,52.1c-0.7-4.3,4.8-6.7,7.5-3.4l18.3,22.5c1,1.2,2.5,1.8,4,1.5l28.7-4.4c4.3-0.7,6.7,4.8,3.4,7.5
	l-22.5,18.3c-1.2,1-1.8,2.5-1.5,4l4.4,28.7c0.7,4.3-4.8,6.7-7.5,3.4l-18.3-22.5c-1-1.2-2.5-1.8-4-1.5l-28.7,4.4
	c-4.3,0.7-6.7-4.8-3.4-7.5l22.5-18.3c1.2-1,1.8-2.5,1.5-4L663.3,52.1z"/>
<g>
	<defs>
		
			<rect id="SVGID_00000132046772727554106090000014812234481870545793_" x="94.4" y="105.4" transform="matrix(0.5 -0.866 0.866 0.5 -60.52 195.8105)" width="89.8" height="89.8"/>
	</defs>
	<clipPath id="SVGID_00000001661755885477700260000004066972993858963368_">
		<use xlink:href="#SVGID_00000132046772727554106090000014812234481870545793_"  style="overflow:visible;"/>
	</clipPath>
	<g style="clip-path:url(#SVGID_00000001661755885477700260000004066972993858963368_);">
		<path class="st8" d="M153.1,120c2.4-2.4,6.4-0.1,5.5,3.2l-5.7,21.7c-0.3,1.1,0,2.3,0.9,3.2l15.8,15.9c2.4,2.4,0.1,6.4-3.2,5.5
			l-21.7-5.7c-1.1-0.3-2.3,0-3.2,0.9l-15.9,15.8c-2.4,2.4-6.4,0.1-5.5-3.2l5.7-21.7c0.3-1.1,0-2.3-0.9-3.2L109,136.5
			c-2.4-2.4-0.1-6.4,3.2-5.5l21.7,5.7c1.1,0.3,2.3,0,3.2-0.9L153.1,120z"/>
	</g>
</g>
<g>
	<defs>
		<path id="SVGID_00000099631694328597963150000017561890290973639568_" d="M553.3,192.9l43.2,24.9c0.9,0.5,1.2,1.6,0.7,2.5
			l-36,62.4c-0.5,0.9-1.6,1.2-2.5,0.7l-43.2-24.9c-0.9-0.5-1.2-1.6-0.7-2.5l36-62.4C551.4,192.7,552.5,192.4,553.3,192.9z"/>
	</defs>
	<clipPath id="SVGID_00000020379769202305361130000011543113154191054523_">
		<use xlink:href="#SVGID_00000099631694328597963150000017561890290973639568_"  style="overflow:visible;"/>
	</clipPath>
	<g style="clip-path:url(#SVGID_00000020379769202305361130000011543113154191054523_);">
		<path class="st2" d="M553.3,192.9l43.2,24.9c0.9,0.5,1.2,1.6,0.7,2.5l-36,62.4c-0.5,0.9-1.6,1.2-2.5,0.7l-43.2-24.9
			c-0.9-0.5-1.2-1.6-0.7-2.5l36-62.4C551.4,192.7,552.5,192.4,553.3,192.9z"/>
		<path class="st3" d="M554.3,196.6l20.2,11.7c0.9,0.5,1.2,1.6,0.7,2.5l-3.5,6.1c-0.5,0.9-1.6,1.2-2.5,0.7L549,205.8
			c-0.9-0.5-1.2-1.6-0.7-2.5l3.5-6.1C552.4,196.4,553.5,196.1,554.3,196.6z"/>
		<path class="st3" d="M580,211.4l12.8,7.4c0.9,0.5,1.2,1.6,0.7,2.5l-3.5,6.1c-0.5,0.9-1.6,1.2-2.5,0.7l-12.8-7.4
			c-0.9-0.5-1.2-1.6-0.7-2.5l3.5-6.1C578,211.2,579.1,210.9,580,211.4z"/>
		<path class="st3" d="M548.1,207.4l38.5,22.2c0.9,0.5,1.2,1.6,0.7,2.5l-3.5,6.1c-0.5,0.9-1.6,1.2-2.5,0.7l-38.5-22.2
			c-0.9-0.5-1.2-1.6-0.7-2.5l3.5-6.1C546.1,207.2,547.2,206.9,548.1,207.4z"/>
		<path class="st8" d="M550.9,234.5c0.8-1.3,1.2-2.8,1.2-4.4c0-1.5-0.4-3-1.2-4.3c-0.8-1.3-1.9-2.4-3.2-3.2
			c-1.3-0.8-2.8-1.1-4.4-1.1c-1.5,0-3,0.4-4.3,1.2c-1.3,0.8-2.4,1.9-3.1,3.2c-0.7,1.3-1.1,2.8-1.1,4.4c0,1.5,0.5,3,1.3,4.3l7.4-4.5
			L550.9,234.5z"/>
		<path class="st12" d="M555.5,237.2l0.6-0.6l0.6-0.5l0.6-0.5l0.6-0.5l0.5-0.5l0.5-0.4l0.5-0.3l0.4-0.3l0.4-0.2l0.4-0.1l0.3,0l0.3,0
			l0.2,0.1l0.2,0.2l0.1,0.3l0.1,0.4l0,0.5l0,0.5l-0.1,0.6l-0.1,0.7l-0.1,0.7l-0.1,0.7l-0.2,0.8l-0.2,0.8l-0.2,0.8l-0.2,0.8l-0.2,0.8
			l-0.2,0.8l-0.1,0.7l-0.1,0.7l-0.1,0.7l-0.1,0.6l0,0.5l0,0.5l0.1,0.4l0.1,0.3l0.2,0.2l0.2,0.1l0.3,0l0.3,0l0.4-0.1l0.4-0.2l0.4-0.3
			l0.5-0.3l0.5-0.4l0.5-0.5l0.6-0.5l0.6-0.5l0.6-0.5l0.6-0.6l0.6-0.6l0.6-0.5l0.6-0.5l0.6-0.5l0.5-0.5l0.5-0.4l0.5-0.3l0.4-0.3
			l0.4-0.2l0.4-0.1l0.3,0l0.3,0l0.2,0.1l0.2,0.2l0.1,0.3l0.1,0.4l0,0.5l0,0.5l-0.1,0.6l-0.1,0.7l-0.1,0.7l-0.1,0.7l-0.2,0.8
			l-0.2,0.8l-0.2,0.8l-0.2,0.8l-0.2,0.8l-0.2,0.8l-0.1,0.7l-0.1,0.7l-0.1,0.7l-0.1,0.6l0,0.5l0,0.5l0.1,0.4l0.1,0.3l0.2,0.2l0.2,0.1
			l0.3,0l0.3,0l0.4-0.1l0.4-0.2l0.4-0.3l0.5-0.3l0.5-0.4l0.5-0.5l0.6-0.5l0.6-0.5l0.6-0.5l0.6-0.6"/>
		<path class="st3" d="M531.4,236.3l9.2,5.3c0.9,0.5,1.2,1.6,0.7,2.5l-3.5,6.1c-0.5,0.9-1.6,1.2-2.5,0.7l-9.2-5.3
			c-0.9-0.5-1.2-1.6-0.7-2.5l3.5-6.1C529.4,236.1,530.5,235.8,531.4,236.3z"/>
		<path class="st3" d="M546,244.8l9.2,5.3c0.9,0.5,1.2,1.6,0.7,2.5l-3.5,6.1c-0.5,0.9-1.6,1.2-2.5,0.7l-9.2-5.3
			c-0.9-0.5-1.2-1.6-0.7-2.5l3.5-6.1C544.1,244.6,545.2,244.3,546,244.8z"/>
		<path class="st3" d="M560.7,253.2l9.2,5.3c0.9,0.5,1.2,1.6,0.7,2.5l-3.5,6.1c-0.5,0.9-1.6,1.2-2.5,0.7l-9.2-5.3
			c-0.9-0.5-1.2-1.6-0.7-2.5l3.5-6.1C558.7,253,559.8,252.7,560.7,253.2z"/>
		<path class="st3" d="M525.1,247.1l38.5,22.2c0.9,0.5,1.2,1.6,0.7,2.5l-3.5,6.1c-0.5,0.9-1.6,1.2-2.5,0.7l-38.5-22.2
			c-0.9-0.5-1.2-1.6-0.7-2.5l3.5-6.1C523.2,246.9,524.3,246.6,525.1,247.1z"/>
	</g>
</g>
</svg>
