<?xml version="1.0" encoding="utf-8"?>
<!-- Generator: Adobe Illustrator 26.1.0, SVG Export Plug-In . SVG Version: 6.00 Build 0)  -->
<svg version="1.1" id="Layer_1" xmlns="http://www.w3.org/2000/svg" xmlns:xlink="http://www.w3.org/1999/xlink" x="0px" y="0px"
	 viewBox="0 0 1895 4986" style="enable-background:new 0 0 1895 4986;" xml:space="preserve">
<style type="text/css">
	.st0{fill:none;stroke:#FFFFFF;stroke-width:2;}
</style>
<path class="st0" d="M187.7-127c-290,638.7,737.5,177.6,732.5,877c-4,564.5,876.2,330,940.5,677c80,432-583,770-1196,355
	c-613-415-373.5,259,150.5,440.5c524,181.5,1760.5,1125,591,1198.5c-1273.5,80-1274.8-20.2-1133-202.5
	c157.5-202.5,398-9.4,214,176.5c-147.2,148.7-430-46-376,231.5c86.7,164.5,113.2,454.3-474,297.5c-734-196-289.2,915.5,599.8,935.5
	s809.5,149.5,828,121.5"/>
</svg>
