<svg width="415" height="266" viewBox="0 0 415 266" fill="none" xmlns="http://www.w3.org/2000/svg">
<path d="M321.851 152.709C332.932 176.091 296.305 216.66 240.043 243.323C183.781 269.986 129.188 272.646 118.107 249.264C107.027 225.883 143.654 185.313 199.916 158.65C256.178 131.987 310.771 129.327 321.851 152.709Z" fill="#FF98E5"/>
<path d="M298.565 163.745C307.113 181.782 278.858 213.078 235.456 233.647C192.054 254.215 149.94 256.267 141.392 238.23C132.844 220.193 161.099 188.896 204.501 168.328C247.903 147.759 290.017 145.707 298.565 163.745Z" fill="#1F2128"/>
<path d="M26.1239 39.9032L38.5627 69.3654L46.2919 82.1036L0 78.9308L12.8296 69.15L0.803395 52.6578L21.0739 57.3585L26.1239 39.9032Z" fill="#FF98E5"/>
<path d="M29.0569 53.015L35.3516 70.254L39.405 77.6474L13.2641 76.9371L20.7807 70.7817L14.3891 61.2609L25.7513 63.5451L29.0569 53.015Z" fill="white"/>
<path d="M83.8455 36.6016L83.1919 37.7337C82.1472 39.5431 80.1242 40.5553 78.0496 40.3064C75.9751 40.0575 73.9521 41.0697 72.9074 42.8791L71.6306 45.0906C69.1206 49.438 70.6101 54.997 74.9576 57.507L152.172 102.087C156.428 104.544 161.87 103.086 164.327 98.8298C166.785 94.5737 165.326 89.1315 161.07 86.6743L111.074 57.8088C108.216 56.1585 107.236 52.5035 108.887 49.6451C110.537 46.7867 109.557 43.1317 106.699 41.4814L93.6819 33.9659C90.2379 31.9775 85.8339 33.1575 83.8455 36.6016Z" fill="#5C50AF"/>
<path d="M43.3434 88.5851L64.2487 52.3761C67.3554 46.9951 74.2361 45.1514 79.6171 48.2581L159.502 94.3799C164.883 97.4866 166.727 104.367 163.62 109.748L142.715 145.957C139.608 151.338 132.728 153.182 127.347 150.075L47.4614 103.953C42.0804 100.847 40.2367 93.9661 43.3434 88.5851Z" fill="#6C5DD3"/>
<path d="M38.2737 73.9416C38.826 72.985 40.0029 72.5875 41.0222 73.0133L60.7716 81.264C61.9933 81.7744 62.4889 83.2418 61.8269 84.3884L56.2711 94.0114C55.6091 95.158 54.0905 95.4625 53.0376 94.6596L36.0176 81.6814C35.1393 81.0116 34.8951 79.7937 35.4474 78.837L38.2737 73.9416Z" fill="#6C5DD3"/>
<g clip-path="url(#clip0_833_590)">
<path d="M329.713 19.9076C331.24 17.564 334.884 18.7405 334.753 21.5346L333.876 40.1257C333.83 41.0982 334.303 42.0222 335.119 42.5537L350.712 52.7141C353.056 54.2412 351.879 57.8852 349.085 57.7534L330.494 56.8766C329.522 56.8307 328.598 57.3037 328.066 58.1194L317.906 73.7131C316.379 76.0568 312.735 74.8802 312.866 72.0861L313.743 53.495C313.789 52.5225 313.316 51.5985 312.5 51.067L296.907 40.9066C294.563 39.3796 295.74 35.7355 298.534 35.8673L317.125 36.7441C318.097 36.79 319.021 36.317 319.553 35.5013L329.713 19.9076Z" fill="#FF98E5"/>
</g>
<g clip-path="url(#clip1_833_590)">
<path d="M390.279 176.188C393.058 175.87 394.474 179.428 392.237 181.108L377.353 192.282C376.575 192.867 376.164 193.82 376.274 194.787L378.385 213.279C378.702 216.058 375.144 217.474 373.465 215.237L362.291 200.353C361.706 199.575 360.753 199.164 359.785 199.275L341.294 201.385C338.514 201.702 337.098 198.145 339.335 196.465L354.219 185.291C354.998 184.706 355.408 183.753 355.298 182.786L353.187 164.294C352.87 161.515 356.428 160.099 358.107 162.335L369.282 177.219C369.866 177.998 370.82 178.409 371.787 178.298L390.279 176.188Z" fill="#FF98E5"/>
</g>
<g clip-path="url(#clip2_833_590)">
<path d="M68.8093 198.57C71.4502 199.492 71.1798 203.311 68.4353 203.852L50.1744 207.449C49.2192 207.637 48.4352 208.318 48.1143 209.237L41.9803 226.809C41.0584 229.45 37.2386 229.179 36.698 226.435L33.101 208.174C32.9128 207.219 32.2325 206.435 31.3133 206.114L13.7414 199.98C11.1005 199.058 11.3709 195.238 14.1154 194.697L32.3763 191.1C33.3315 190.912 34.1155 190.232 34.4364 189.313L40.5704 171.741C41.4923 169.1 45.3121 169.37 45.8527 172.115L49.4497 190.376C49.6379 191.331 50.3182 192.115 51.2374 192.436L68.8093 198.57Z" fill="#FF98E5"/>
</g>
<defs>
<clipPath id="clip0_833_590">
<rect width="74.3302" height="74.3302" fill="white" transform="translate(299.861 0.0239258) rotate(17.8937)"/>
</clipPath>
<clipPath id="clip1_833_590">
<rect width="74.3302" height="74.3302" fill="white" transform="translate(386.572 140.512) rotate(68.2955)"/>
</clipPath>
<clipPath id="clip2_833_590">
<rect width="74.3302" height="74.3302" fill="white" transform="translate(80.9727 164.827) rotate(94.0499)"/>
</clipPath>
</defs>
</svg>
