<?xml version="1.0" encoding="utf-8"?>
<!-- Generator: Adobe Illustrator 26.1.0, SVG Export Plug-In . SVG Version: 6.00 Build 0)  -->
<svg version="1.1" id="Layer_1" xmlns="http://www.w3.org/2000/svg" xmlns:xlink="http://www.w3.org/1999/xlink" x="0px" y="0px"
	 viewBox="0 0 423 575" style="enable-background:new 0 0 423 575;" xml:space="preserve">
<style type="text/css">
	.st0{fill:none;stroke:#FFFFFF;stroke-width:2;}
	.st1{fill:none;stroke:#FFFFFF;stroke-width:2;stroke-linecap:round;}
</style>
<g>
	<g>
		<g>
			<path class="st0" d="M135.1,286.7c-0.3,12.5-10.8,22.4-23.4,22.1c-12.5-0.4-22.4-10.8-22.1-23.4c0.3-12.5,10.8-22.4,23.4-22.1
				C125.6,263.7,135.5,274.2,135.1,286.7z"/>
			<path class="st1" d="M168,337c10,0.3,18.8-22.7,19.6-51.2c0.8-28.6-6.6-52-16.7-52.3 M182.8,452.9c32.3,0.9,60.7-73,63.4-165.4
				c2.7-92.3-21.2-167.9-53.4-168.9 M238.8,536.5c48,1.5,90.2-108.9,94.3-246.5S301.5,39.9,253.6,38.5"/>
		</g>
	</g>
</g>
</svg>
